<svg width="172" height="152" viewBox="0 0 172 152" fill="none" xmlns="http://www.w3.org/2000/svg">
<path d="M85.5831 65.1466L104.164 98.0913L85.5831 131.036H85.5711V152H100.03L130.393 98.1772L100.03 44.3481H66.8286V65.1466H85.5831Z" fill="url(#paint0_linear_430_248)"/>
<path d="M86.4229 86.8536L67.8364 53.9089L86.4229 20.9642V0H71.9701L41.6066 53.8291L71.9701 107.652H105.171V86.8536H86.4229Z" fill="url(#paint1_linear_430_248)"/>
<path d="M127.19 65.1466L145.77 98.0913L127.19 131.036H88.4209V152H141.637L172 98.1772L141.637 44.3481H80.9155V65.1466H127.19Z" fill="url(#paint2_linear_430_248)"/>
<path d="M111.729 65.1159L100.018 44.3481H73.2182L67.8246 53.9092L74.1421 65.1159H111.729Z" fill="url(#paint3_linear_430_248)"/>
<path d="M74.442 41.978H48.2601L60.2052 20.7988H86.387L74.442 41.978Z" fill="url(#paint4_linear_430_248)"/>
<path d="M124.01 86.8598V86.8536H44.8103L26.2299 53.9089L44.8103 20.9642H86.4229V0H30.3635L0 53.8291L30.3635 107.652H124.01H125L130.393 98.1709L124.01 86.8598Z" fill="url(#paint5_linear_430_248)"/>
<path d="M74.4298 65.668H48.2419L60.187 86.8471H86.3748L74.4298 65.668Z" fill="url(#paint6_linear_430_248)"/>
<defs>
<linearGradient id="paint0_linear_430_248" x1="66.8286" y1="98.1772" x2="130.393" y2="98.1772" gradientUnits="userSpaceOnUse">
<stop offset="1" stop-color="#F1F1F1"/>
</linearGradient>
<linearGradient id="paint1_linear_430_248" x1="41.6066" y1="53.8291" x2="105.171" y2="53.8291" gradientUnits="userSpaceOnUse">
<stop stop-color="white"/>
<stop offset="1" stop-color="#F1F1F1"/>
</linearGradient>
<linearGradient id="paint2_linear_430_248" x1="80.9155" y1="98.1772" x2="172" y2="98.1772" gradientUnits="userSpaceOnUse">
<stop stop-color="#F7F7F7"/>
<stop offset="0.47" stop-color="#FCFCFC"/>
<stop offset="1" stop-color="white"/>
</linearGradient>
<linearGradient id="paint3_linear_430_248" x1="67.8246" y1="54.732" x2="111.729" y2="54.732" gradientUnits="userSpaceOnUse">
<stop stop-color="#F3F3F3"/>
<stop offset="0.18" stop-color="#F7F7F7"/>
<stop offset="0.62" stop-color="#FAFAFA"/>
</linearGradient>
<linearGradient id="paint4_linear_430_248" x1="67.3206" y1="41.978" x2="67.3206" y2="20.7988" gradientUnits="userSpaceOnUse">
<stop stop-color="#FBFBFB"/>
<stop offset="1" stop-color="#F2F2F2"/>
</linearGradient>
<linearGradient id="paint5_linear_430_248" x1="14.5968" y1="27.9462" x2="132.495" y2="94.4513" gradientUnits="userSpaceOnUse">
<stop stop-color="white"/>
<stop offset="1" stop-color="#FAFAFA"/>
</linearGradient>
<linearGradient id="paint6_linear_430_248" x1="67.3084" y1="65.668" x2="67.3084" y2="86.8471" gradientUnits="userSpaceOnUse">
<stop offset="0.22" stop-color="#FCFCFC"/>
<stop offset="1" stop-color="#F3F3F3"/>
</linearGradient>
</defs>
</svg>
