<svg width="56" height="56" viewBox="0 0 56 56" fill="none" xmlns="http://www.w3.org/2000/svg">
<path fill-rule="evenodd" clip-rule="evenodd" d="M45.3396 15.6099C46.0031 14.9464 46.0024 13.8288 45.3125 13.1389L42.8608 10.6872C42.1415 9.96793 41.0647 9.9853 40.3899 10.6602L28 23.05L15.6102 10.6602C14.9466 9.99664 13.829 9.99743 13.1392 10.6872L10.6875 13.1389C9.96817 13.8583 9.98554 14.935 10.6604 15.6099L23.0503 27.9998L10.6604 40.3896C9.99689 41.0531 9.99767 42.1708 10.6875 42.8606L13.1392 45.3123C13.8585 46.0316 14.9353 46.0142 15.6102 45.3394L28 32.9495L40.3899 45.3394C41.0534 46.0029 42.171 46.0021 42.8608 45.3123L45.3125 42.8606C46.0319 42.1413 46.0145 41.0645 45.3396 40.3896L32.9498 27.9998L45.3396 15.6099Z" fill="white"/>
</svg>
