<svg width="40" height="40" viewBox="0 0 40 40" fill="none" xmlns="http://www.w3.org/2000/svg">
<path d="M20.0065 0C11.6567 0 9.21471 0.00861611 8.74003 0.0480041C7.02651 0.190478 5.96025 0.460347 4.79862 1.03886C3.9034 1.48351 3.19738 1.99894 2.50059 2.72146C1.2316 4.03911 0.462511 5.66017 0.184102 7.5871C0.048743 8.52257 0.00936576 8.71335 0.00136726 13.4916C-0.00170908 15.0844 0.00136726 17.1805 0.00136726 19.9922C0.00136726 28.3375 0.0105963 30.7777 0.0505888 31.2516C0.189024 32.9194 0.450514 33.9687 1.00426 35.1165C2.06252 37.3136 4.08368 38.963 6.46477 39.5784C7.28923 39.7908 8.19983 39.9077 9.36884 39.9631C9.86413 39.9846 14.9124 40 19.9638 40C25.0151 40 30.0665 39.9938 30.5495 39.9692C31.9031 39.9055 32.6891 39.8 33.5581 39.5753C34.7388 39.2725 35.8391 38.7155 36.7822 37.9432C37.7254 37.171 38.4886 36.2021 39.0187 35.1042C39.5616 33.9841 39.837 32.8948 39.9616 31.314C39.9886 30.9694 40 25.4745 40 19.9869C40 14.4985 39.9877 9.01369 39.9606 8.66904C39.8345 7.06275 39.5592 5.98266 38.9987 4.84103C38.5387 3.90648 38.0281 3.20858 37.2867 2.49498C35.9638 1.23087 34.3457 0.461578 32.4171 0.1834C31.4828 0.0483118 31.2967 0.0083084 26.5161 0H20.0065Z" fill="url(#paint0_radial_844_259)"/>
<path d="M20.0065 0C11.6567 0 9.21471 0.00861611 8.74003 0.0480041C7.02651 0.190478 5.96025 0.460347 4.79862 1.03886C3.9034 1.48351 3.19738 1.99894 2.50059 2.72146C1.2316 4.03911 0.462511 5.66017 0.184102 7.5871C0.048743 8.52257 0.00936576 8.71335 0.00136726 13.4916C-0.00170908 15.0844 0.00136726 17.1805 0.00136726 19.9922C0.00136726 28.3375 0.0105963 30.7777 0.0505888 31.2516C0.189024 32.9194 0.450514 33.9687 1.00426 35.1165C2.06252 37.3136 4.08368 38.963 6.46477 39.5784C7.28923 39.7908 8.19983 39.9077 9.36884 39.9631C9.86413 39.9846 14.9124 40 19.9638 40C25.0151 40 30.0665 39.9938 30.5495 39.9692C31.9031 39.9055 32.6891 39.8 33.5581 39.5753C34.7388 39.2725 35.8391 38.7155 36.7822 37.9432C37.7254 37.171 38.4886 36.2021 39.0187 35.1042C39.5616 33.9841 39.837 32.8948 39.9616 31.314C39.9886 30.9694 40 25.4745 40 19.9869C40 14.4985 39.9877 9.01369 39.9606 8.66904C39.8345 7.06275 39.5592 5.98266 38.9987 4.84103C38.5387 3.90648 38.0281 3.20858 37.2867 2.49498C35.9638 1.23087 34.3457 0.461578 32.4171 0.1834C31.4828 0.0483118 31.2967 0.0083084 26.5161 0H20.0065Z" fill="url(#paint1_radial_844_259)"/>
<path d="M19.9974 5.23096C15.987 5.23096 15.4837 5.2485 13.9087 5.3202C12.3366 5.3922 11.2636 5.64115 10.3247 6.00641C9.35351 6.38367 8.52967 6.88833 7.7089 7.70963C6.88752 8.53062 6.38299 9.35469 6.0046 10.3258C5.63852 11.2653 5.38934 12.3389 5.31858 13.9108C5.24844 15.4863 5.22998 15.99 5.22998 20.0014C5.22998 24.0129 5.24782 24.5147 5.31919 26.0903C5.39149 27.6627 5.64037 28.736 6.00522 29.6752C6.38269 30.6466 6.88721 31.4707 7.70828 32.2917C8.52874 33.1133 9.35259 33.6192 10.3232 33.9965C11.2627 34.3617 12.336 34.6107 13.9077 34.6827C15.4828 34.7544 15.9858 34.7719 19.9958 34.7719C24.0064 34.7719 24.5082 34.7544 26.0833 34.6827C27.6553 34.6107 28.7296 34.3617 29.6691 33.9965C30.64 33.6192 31.4626 33.1133 32.283 32.2917C33.1044 31.4707 33.609 30.6466 33.9873 29.6755C34.3503 28.736 34.5995 27.6624 34.6734 26.0906C34.7441 24.515 34.7626 24.0129 34.7626 20.0014C34.7626 15.99 34.7441 15.4866 34.6734 13.9111C34.5995 12.3386 34.3503 11.2653 33.9873 10.3262C33.609 9.35469 33.1044 8.53062 32.283 7.70963C31.4617 6.88802 30.6403 6.38336 29.6682 6.00641C28.7268 5.64115 27.6531 5.3922 26.0811 5.3202C24.506 5.2485 24.0046 5.23096 19.993 5.23096H19.9974ZM18.6727 7.89272C19.0658 7.8921 19.5045 7.89272 19.9974 7.89272C23.94 7.89272 24.4073 7.90688 25.9642 7.97765C27.404 8.0435 28.1854 8.28414 28.7059 8.48631C29.395 8.75402 29.8863 9.07405 30.4028 9.59102C30.9196 10.108 31.2396 10.6003 31.5078 11.2896C31.7099 11.8097 31.9508 12.5913 32.0163 14.0314C32.0871 15.5884 32.1025 16.0562 32.1025 19.9981C32.1025 23.9399 32.0871 24.4077 32.0163 25.9647C31.9505 27.4048 31.7099 28.1864 31.5078 28.7065C31.2402 29.3958 30.9196 29.8866 30.4028 30.4032C29.886 30.9202 29.3953 31.2402 28.7059 31.5079C28.186 31.711 27.404 31.9511 25.9642 32.0169C24.4076 32.0877 23.94 32.1031 19.9974 32.1031C16.0544 32.1031 15.5871 32.0877 14.0305 32.0169C12.5907 31.9504 11.8094 31.7098 11.2885 31.5076C10.5994 31.2399 10.1072 30.9199 9.59039 30.4029C9.07357 29.886 8.75363 29.3948 8.48537 28.7053C8.28325 28.1852 8.04237 27.4036 7.97685 25.9635C7.90609 24.4064 7.89194 23.9387 7.89194 19.9944C7.89194 16.05 7.90609 15.5848 7.97685 14.0277C8.04268 12.5876 8.28325 11.806 8.48537 11.2853C8.75301 10.596 9.07357 10.1037 9.59039 9.58671C10.1072 9.06974 10.5994 8.74972 11.2885 8.48139C11.8091 8.27829 12.5907 8.03827 14.0305 7.97211C15.3927 7.91057 15.9206 7.89211 18.6727 7.88903V7.89272ZM27.8796 10.3452C27.5291 10.3452 27.1865 10.4492 26.895 10.644C26.6036 10.8388 26.3765 11.1156 26.2424 11.4395C26.1083 11.7635 26.0733 12.1199 26.1417 12.4637C26.2101 12.8075 26.3789 13.1234 26.6268 13.3712C26.8747 13.6191 27.1905 13.7878 27.5342 13.8562C27.878 13.9245 28.2343 13.8893 28.5581 13.7551C28.8819 13.6208 29.1586 13.3935 29.3532 13.102C29.5478 12.8104 29.6517 12.4677 29.6515 12.1171C29.6515 11.1385 28.8578 10.3446 27.8796 10.3446V10.3452ZM19.9974 12.4162C15.8095 12.4162 12.4142 15.8125 12.4142 20.0014C12.4142 24.1904 15.8095 27.5852 19.9974 27.5852C24.1852 27.5852 27.5796 24.1904 27.5796 20.0014C27.5796 15.8125 24.1849 12.4162 19.997 12.4162H19.9974ZM19.9974 15.0779C22.7156 15.0779 24.9195 17.2821 24.9195 20.0014C24.9195 22.7204 22.7156 24.9249 19.9974 24.9249C17.2788 24.9249 15.0752 22.7204 15.0752 20.0014C15.0752 17.2821 17.2788 15.0779 19.9974 15.0779V15.0779Z" fill="white"/>
<defs>
<radialGradient id="paint0_radial_844_259" cx="0" cy="0" r="1" gradientUnits="userSpaceOnUse" gradientTransform="translate(10.6251 43.0808) rotate(-90) scale(39.643 36.8711)">
<stop stop-color="#FFDD55"/>
<stop offset="0.1" stop-color="#FFDD55"/>
<stop offset="0.5" stop-color="#FF543E"/>
<stop offset="1" stop-color="#C837AB"/>
</radialGradient>
<radialGradient id="paint1_radial_844_259" cx="0" cy="0" r="1" gradientUnits="userSpaceOnUse" gradientTransform="translate(-6.70021 2.88153) rotate(78.6806) scale(17.7206 73.0449)">
<stop stop-color="#3771C8"/>
<stop offset="0.128" stop-color="#3771C8"/>
<stop offset="1" stop-color="#6600FF" stop-opacity="0"/>
</radialGradient>
</defs>
</svg>
