<svg width="40" height="40" viewBox="0 0 40 40" fill="none" xmlns="http://www.w3.org/2000/svg">
<path fill-rule="evenodd" clip-rule="evenodd" d="M32.3856 11.1503C32.8596 10.6763 32.859 9.87803 32.3663 9.3853L30.6151 7.6341C30.1013 7.1203 29.3321 7.13271 28.8501 7.61475L20.0002 16.4646L11.1503 7.61475C10.6763 7.14081 9.87803 7.14137 9.3853 7.6341L7.6341 9.3853C7.1203 9.8991 7.13271 10.6682 7.61475 11.1503L16.4646 20.0002L7.61475 28.8501C7.14081 29.324 7.14137 30.1223 7.6341 30.6151L9.3853 32.3663C9.8991 32.8801 10.6682 32.8677 11.1503 32.3856L20.0002 23.5357L28.8501 32.3856C29.324 32.8596 30.1223 32.859 30.6151 32.3663L32.3663 30.6151C32.8801 30.1013 32.8677 29.3321 32.3856 28.8501L23.5357 20.0002L32.3856 11.1503Z" fill="black"/>
</svg>
