<svg width="28" height="28" viewBox="0 0 28 28" fill="none" xmlns="http://www.w3.org/2000/svg">
<path fill-rule="evenodd" clip-rule="evenodd" d="M22.75 14L23.2656 14.5156C23.9463 15.1963 24.5 16.5327 24.5 17.4982V19.2518C24.5 20.2253 23.7146 21 22.7457 21H5.25433C4.29758 21 3.5 20.2173 3.5 19.2518V17.4982C3.5 16.5247 4.05266 15.1973 4.73441 14.5156L5.25 14V12.222C5.25 7.97825 8.274 4.47125 12.285 3.67325C12.2797 3.61375 12.25 3.56125 12.25 3.5C12.25 2.5375 13.0375 1.75 14 1.75C14.9625 1.75 15.75 2.5375 15.75 3.5C15.75 3.56125 15.7202 3.61375 15.715 3.67325C19.726 4.47125 22.75 8.0045 22.75 12.25V14ZM17.5 22.75C17.5 24.682 15.9338 26.25 14 26.25C12.0662 26.25 10.5 24.682 10.5 22.75H17.5Z" fill="white" fill-opacity="current"/>
</svg>
