<svg width="24" height="24" viewBox="0 0 24 24" fill="none" xmlns="http://www.w3.org/2000/svg">
<path fill-rule="evenodd" clip-rule="evenodd" d="M16.2774 17.2132C16.5542 17.5087 16.7053 17.9003 16.6987 18.3052C16.6921 18.71 16.5283 19.0965 16.242 19.3828C15.9556 19.6691 15.5692 19.8329 15.1643 19.8395C14.7594 19.8461 14.3679 19.695 14.0724 19.4182L7.75735 13.1017C7.46515 12.8092 7.30103 12.4126 7.30103 11.9992C7.30103 11.5857 7.46515 11.1892 7.75735 10.8967L14.0724 4.58169C14.3679 4.30485 14.7594 4.15376 15.1643 4.16036C15.5692 4.16697 15.9556 4.33074 16.242 4.61707C16.5283 4.9034 16.6921 5.28984 16.6987 5.69472C16.7053 6.0996 16.5542 6.49117 16.2774 6.78669L11.0649 11.9992L16.2774 17.2132Z" fill="#333333"/>
</svg>
