<svg width="28" height="24" viewBox="0 0 28 24" fill="none" xmlns="http://www.w3.org/2000/svg">
<g id="Icon">
<path id="Vector" fill-rule="evenodd" clip-rule="evenodd" d="M12.3531 0.999203C13.2626 0.219628 14.7297 0.213202 15.6467 0.999203L24.0198 8.17611C24.9293 8.95569 25.6666 10.4634 25.6666 11.5935V22.5808C25.6666 23.1369 25.1632 23.5877 24.5107 23.5877H19.8225C19.1841 23.5877 18.6666 23.1562 18.6666 22.5969V17.5877C18.6666 17.5877 18.6666 13.5877 13.9999 13.5877C9.33325 13.5877 9.48662 16.6194 9.48662 16.6194C9.40192 17.1541 9.33325 18.0192 9.33325 18.5784V22.5969C9.33325 23.1441 8.82983 23.5877 8.17734 23.5877H3.48916C2.85077 23.5877 2.33325 23.1219 2.33325 22.5808V11.5935C2.33325 10.4857 3.06305 8.96211 3.98006 8.17611L12.3531 0.999203Z" fill="white" fill-opacity="current"/>
</g>
</svg>
