<svg width="48" height="48" viewBox="0 0 48 48" fill="none" xmlns="http://www.w3.org/2000/svg">
<g id="Icon">
<path id="Vector" fill-rule="evenodd" clip-rule="evenodd" d="M0 5.982C0 2.679 2.685 0 5.982 0H42.018C45.321 0 48 2.685 48 5.982V42.018C47.9992 43.6043 47.3687 45.1254 46.247 46.247C45.1254 47.3687 43.6043 47.9992 42.018 48H5.982C4.39572 47.9992 2.87464 47.3687 1.75297 46.247C0.631295 45.1254 0.000794929 43.6043 0 42.018L0 5.982ZM6.219 26.781C6.1494 26.8508 6.09423 26.9336 6.05665 27.0247C6.01907 27.1158 5.99982 27.2134 6 27.312V37.5C6 38.6935 6.47411 39.8381 7.31802 40.682C8.16193 41.5259 9.30653 42 10.5 42H37.5C38.6935 42 39.8381 41.5259 40.682 40.682C41.5259 39.8381 42 38.6935 42 37.5V24.375C42 24.2586 41.9729 24.1437 41.9208 24.0396C41.8688 23.9354 41.7931 23.8449 41.7 23.775L30 15L18 24L12 21L6.219 26.781ZM10.5 15C11.0909 15 11.6761 14.8836 12.2221 14.6575C12.768 14.4313 13.2641 14.0998 13.682 13.682C14.0998 13.2641 14.4313 12.768 14.6575 12.2221C14.8836 11.6761 15 11.0909 15 10.5C15 9.90905 14.8836 9.32389 14.6575 8.77792C14.4313 8.23196 14.0998 7.73588 13.682 7.31802C13.2641 6.90016 12.768 6.56869 12.2221 6.34254C11.6761 6.1164 11.0909 6 10.5 6C9.30653 6 8.16193 6.47411 7.31802 7.31802C6.47411 8.16193 6 9.30653 6 10.5C6 11.6935 6.47411 12.8381 7.31802 13.682C8.16193 14.5259 9.30653 15 10.5 15Z" fill="#333333"/>
</g>
</svg>
