<svg width="172" height="152" viewBox="0 0 172 152" fill="none" xmlns="http://www.w3.org/2000/svg">
<path d="M85.5832 65.147L104.164 98.0916L85.5832 131.036H85.5712V152H100.036L130.393 98.1776L100.036 44.3486H66.8288V65.147H85.5832Z" fill="#005950"/>
<path d="M86.4231 86.8533L67.8427 53.9088L86.4231 20.9703V0H71.9703L41.6069 53.8289L71.9703 107.652H105.178V86.8533H86.4231Z" fill="#005950"/>
<path d="M127.19 65.147L145.77 98.0916L127.19 131.036H88.4209V152H141.643L172 98.1776L141.643 44.3486H80.9216V65.147H127.19Z" fill="#005950"/>
<path d="M111.687 65.1163L99.9699 44.3486H73.1701L67.7766 53.9096L74.1 65.1163H111.687Z" fill="url(#paint0_linear_430_279)"/>
<path d="M112.071 65.6865H85.8828L97.8278 86.8595H124.016L112.071 65.6865Z" fill="url(#paint1_linear_430_279)"/>
<path d="M113.061 128.83H86.8727L98.8177 107.651H125.006L113.061 128.83Z" fill="url(#paint2_linear_430_279)"/>
<path d="M74.442 41.9779H48.2602L60.2052 20.7988H86.387L74.442 41.9779Z" fill="url(#paint3_linear_430_279)"/>
<path d="M74.4842 65.6865H48.3024L60.2474 86.8595H86.4292L74.4842 65.6865Z" fill="url(#paint4_linear_430_279)"/>
<path d="M124.016 86.8595V86.8533H44.8163L26.2298 53.9088L44.8163 20.9703H86.4228V0H30.3635L0 53.8289L30.3635 107.652H124.016H125.006L130.393 98.1767L124.016 86.8595Z" fill="url(#paint5_linear_430_279)"/>
<defs>
<linearGradient id="paint0_linear_430_279" x1="67.7766" y1="54.7325" x2="111.687" y2="54.7325" gradientUnits="userSpaceOnUse">
<stop stop-color="#03453E"/>
<stop offset="0.11" stop-color="#014D45"/>
<stop offset="0.32" stop-color="#00564D"/>
<stop offset="0.62" stop-color="#005950"/>
</linearGradient>
<linearGradient id="paint1_linear_430_279" x1="104.949" y1="65.6865" x2="104.949" y2="86.8595" gradientUnits="userSpaceOnUse">
<stop stop-color="#005950"/>
<stop offset="1" stop-color="#03463F"/>
</linearGradient>
<linearGradient id="paint2_linear_430_279" x1="105.939" y1="128.824" x2="105.939" y2="107.651" gradientUnits="userSpaceOnUse">
<stop stop-color="#005950"/>
<stop offset="1" stop-color="#03463F"/>
</linearGradient>
<linearGradient id="paint3_linear_430_279" x1="67.3266" y1="41.9779" x2="67.3266" y2="20.7988" gradientUnits="userSpaceOnUse">
<stop stop-color="#005950"/>
<stop offset="1" stop-color="#015148"/>
</linearGradient>
<linearGradient id="paint4_linear_430_279" x1="67.3628" y1="65.6865" x2="67.3628" y2="86.8656" gradientUnits="userSpaceOnUse">
<stop stop-color="#005950"/>
<stop offset="1" stop-color="#015148"/>
</linearGradient>
<linearGradient id="paint5_linear_430_279" x1="14.5968" y1="27.9461" x2="132.495" y2="94.4512" gradientUnits="userSpaceOnUse">
<stop stop-color="#007C6A"/>
<stop offset="1" stop-color="#005950"/>
</linearGradient>
</defs>
</svg>
