<svg width="20" height="20" viewBox="0 0 20 20" fill="none" xmlns="http://www.w3.org/2000/svg">
<path fill-rule="evenodd" clip-rule="evenodd" d="M16.6513 11.6667L17.1423 12.1577C17.7906 12.806 17.8366 13.9005 17.2428 14.6002L16.8596 15.0517L3.31796 15L2.82692 14.509C2.17864 13.8607 2.17764 12.807 2.82692 12.1577L3.31796 11.6667V8.33333C3.31796 5.21333 5.46963 2.615 8.36296 1.88833C8.35296 1.81333 8.31796 1.745 8.31796 1.66667C8.31796 0.75 9.06796 0 9.98463 0C10.9013 0 11.6513 0.75 11.6513 1.66667C11.6513 1.745 11.6163 1.81333 11.6063 1.88833C14.4996 2.615 16.6513 5.21333 16.6513 8.33333V11.6667ZM9.98463 20C8.14296 20 6.65129 18.5067 6.65129 16.6667H13.318C13.318 18.5067 11.8263 20 9.98463 20Z" fill="#333333"/>
</svg>
