<svg width="20" height="20" viewBox="0 0 20 20" fill="none" xmlns="http://www.w3.org/2000/svg">
<path fill-rule="evenodd" clip-rule="evenodd" d="M2.58144 13.6695L10.4396 5.8114C10.6863 5.56466 11.0847 5.56458 11.3304 5.81021L14.1906 8.66946C14.4339 8.91266 14.4358 9.31389 14.1896 9.56022L6.33144 17.4195C6.08469 17.6662 5.60826 17.8655 5.26626 17.8655H2.75473C2.40519 17.8655 2.1355 17.5882 2.1355 17.2462V14.7347C2.1355 14.3852 2.33515 13.9158 2.58144 13.6695ZM15.5242 2.50466L17.4975 4.47726C17.9851 4.96465 17.9885 5.76353 17.4976 6.25396L16.3209 7.42946C16.0815 7.66864 15.6861 7.66559 15.4403 7.41996L12.5801 4.56071C12.3369 4.31751 12.3302 3.921 12.5707 3.68049L13.7468 2.50441C14.2446 2.00659 15.0333 2.01384 15.5242 2.50466Z" fill="#333333"/>
</svg>
